<?xml version="1.0" encoding="utf-8"?>
<!-- Generator: Adobe Illustrator 24.2.0, SVG Export Plug-In . SVG Version: 6.00 Build 0)  -->
<svg version="1.1" id="Capa_1" xmlns="http://www.w3.org/2000/svg" xmlns:xlink="http://www.w3.org/1999/xlink" x="0px" y="0px"
	 viewBox="0 0 150 150" style="enable-background:new 0 0 150 150;" xml:space="preserve">
<style type="text/css">
	.st0{display:none;}
	.st1{display:inline;fill:#EEEEEE;}
	.st2{fill:none;stroke:#20C88A;stroke-width:15;stroke-miterlimit:10;}
	.st3{opacity:0.8;}
	.st4{fill:#231F20;}
	.st5{fill:#242021;}
	.st6{fill:#20C88A;}
</style>
<g id="Capa_2_1_" class="st0">
	<path class="st1" d="M137.9,150h-126c-6.6,0-12-5.4-12-12V12c0-6.6,5.4-12,12-12h126c6.6,0,12,5.4,12,12v126
		C149.9,144.6,144.5,150,137.9,150z"/>
</g>
<g id="Logo">
	<circle class="st2" cx="69.6" cy="69.7" r="61.7"/>
	<g class="st3">
		<path class="st4" d="M70.2,120.5c-1.9-2.7-3.4-5.2-3.3-8.8c0.2-10.7,0.1-21.4-0.1-32.1c-0.1-7.6-1.7-14.9-5.8-21.3
			c-1-1.5-2.1-3-3.4-4.2c-3.1-3-3.1-3.1,0.2-5.8c6.3-5,13.4-4.2,18.9,2.5c5.1,6.3,7.7,13.8,8.2,21.8c0.6,9.2,0.6,18.3,1,27.5
			c0.1,2.3-1.3,3.2-2.6,4.5c-3.8,3.6-7.4,7.3-10.2,11.5C71.9,117.4,71.2,118.9,70.2,120.5z"/>
		<path class="st4" d="M62.8,110.2c-4.2-4-8-7.7-11.8-11.5c-5.5-5.5-10.9-10.9-16.4-16.4c-0.8-0.8-1.5-1.5-1.5-2.7
			c0.4-6.8,1.4-13.2,5.1-19c5.5-8.7,14-8.4,19.5,0.2c3.6,5.8,4.9,12.1,5,18.8c0.2,9.6,0.1,19.4,0.2,29
			C62.9,108.9,62.9,109.3,62.8,110.2z"/>
		<path class="st4" d="M89.2,97.6c0-7.5,0.2-14.3,0-20.9C89,68.4,87.1,60.4,82.9,53c-1-1.7-0.6-2.4,1-3.2c4.2-2.3,9-1.7,12.8,1.8
			c4.3,3.8,6.7,8.8,8.2,14.2c1.2,4.3,1.8,8.7,1.9,13.1c0,1.1,0,1.9-0.8,2.7c-5.1,5-10.1,10.1-15.2,15.1C90.4,96.9,90.2,97,89.2,97.6
			z"/>
		<path class="st4" d="M65.8,42.6c-6.1,0-10.8-4.9-10.8-10.9s4.9-10.8,10.9-10.8s10.9,5,10.9,10.9C76.7,37.8,71.9,42.7,65.8,42.6z"
			/>
		<path class="st4" d="M89,46.2c-5.5,0-10-4.5-10-10c0-5.6,4.4-9.9,9.9-10c5.6,0,10,4.3,10,9.9C99,41.7,94.6,46.2,89,46.2z"/>
		<path class="st5" d="M56.3,44c-0.1,4.6-3.9,8.3-8.7,8.2c-4.5-0.1-8.2-3.9-8.1-8.4c0.1-4.5,3.8-8.2,8.3-8.2
			C52.5,35.4,56.4,39.4,56.3,44z"/>
	</g>
	<path class="st6" d="M148.3,143l-5.4,5.4c-2.1,2.1-5.5,2.1-7.6,0l-20.6-20.6c-2.1-2.1-2.1-5.5,0-7.6l5.4-5.4c2.1-2.1,5.5-2.1,7.6,0
		l20.6,20.6C150.3,137.5,150.3,140.9,148.3,143z"/>
</g>
</svg>
