<?xml version="1.0" encoding="utf-8"?>
<!-- Generator: Adobe Illustrator 24.2.0, SVG Export Plug-In . SVG Version: 6.00 Build 0)  -->
<svg version="1.1" id="Capa_1" xmlns="http://www.w3.org/2000/svg" xmlns:xlink="http://www.w3.org/1999/xlink" x="0px" y="0px"
	 viewBox="0 0 728 150" style="enable-background:new 0 0 728 150;" xml:space="preserve">
<style type="text/css">
	.st0{display:none;}
	.st1{display:inline;fill:#EEEEEE;}
	.st2{fill:#009688;}
	.st3{fill:none;stroke:#009688;stroke-width:15;stroke-miterlimit:10;}
	.st4{opacity:0.8;}
	.st5{fill:#231F20;}
	.st6{fill:#242021;}
</style>
<g id="Capa_2_1_" class="st0">
	<path class="st1" d="M138.5,150h-126c-6.6,0-12-5.4-12-12V12c0-6.6,5.4-12,12-12h126c6.6,0,12,5.4,12,12v126
		C150.5,144.6,145.1,150,138.5,150z"/>
</g>
<g id="Logo">
	<g>
		<path class="st2" d="M180,86.7h-10.6v18h-15.6V46.6H180c2.8,0,5.5,0.5,8,1.4c2.6,0.9,4.8,2.3,6.8,4s3.5,3.7,4.7,6.1
			c1.2,2.4,1.8,5,1.8,7.9s-0.6,5.6-1.8,8.1s-2.7,4.7-4.7,6.6s-4.2,3.3-6.8,4.4C185.5,86.2,182.8,86.7,180,86.7z M178.9,59.6h-9.1
			v12.5h9.1c0.9,0,1.7-0.2,2.5-0.5s1.5-0.8,2.1-1.3c0.6-0.6,1.1-1.2,1.4-2c0.3-0.7,0.5-1.6,0.5-2.5s-0.2-1.7-0.5-2.5
			c-0.4-0.7-0.8-1.4-1.4-2c-0.6-0.6-1.3-1-2.1-1.3C180.6,59.8,179.8,59.6,178.9,59.6z"/>
		<path class="st2" d="M234.5,104.7l-7.8-15h-8.8v15h-14.4V55.4h25.8c1.1,0,2.3,0.2,3.6,0.5c1.2,0.3,2.4,0.8,3.6,1.3
			c1.1,0.6,2.2,1.3,3.2,2.1s1.8,1.7,2.5,2.7c0.8,1.2,1.5,2.6,1.9,4s0.7,2.9,0.7,4.4c0,2.4-0.6,4.7-1.6,6.8c-1.1,2.1-2.6,3.9-4.5,5.4
			l11.5,22.2h-15.7V104.7z M225.2,66.9h-7.3v9.4h7.3c1.3,0,2.4-0.5,3.4-1.4c0.9-0.9,1.4-2.1,1.4-3.4s-0.5-2.4-1.4-3.3
			S226.5,66.9,225.2,66.9z"/>
		<path class="st2" d="M268.9,106.2c-3.6,0-7-0.7-10.2-2.1c-3.2-1.4-6-3.2-8.3-5.6c-2.4-2.3-4.2-5.1-5.6-8.3
			c-1.4-3.2-2.1-6.6-2.1-10.2s0.7-7,2.1-10.1c1.4-3.2,3.2-5.9,5.6-8.3c2.4-2.4,5.2-4.2,8.3-5.6c3.2-1.4,6.6-2.1,10.2-2.1
			s7,0.7,10.2,2.1c3.2,1.4,6,3.2,8.3,5.6c2.4,2.3,4.2,5.1,5.6,8.3s2.1,6.6,2.1,10.2s-0.7,7-2.1,10.2s-3.2,6-5.6,8.3
			s-5.2,4.2-8.3,5.6C275.8,105.6,272.4,106.2,268.9,106.2z M268.9,67.5c-1.7,0-3.3,0.3-4.7,1c-1.5,0.7-2.7,1.6-3.8,2.7
			c-1.1,1.1-1.9,2.5-2.5,4S257,78.3,257,80s0.3,3.3,0.9,4.8s1.5,2.9,2.5,4c1.1,1.2,2.3,2.1,3.8,2.8c1.5,0.7,3,1,4.7,1s3.3-0.3,4.7-1
			c1.5-0.7,2.7-1.6,3.8-2.8c1.1-1.2,1.9-2.5,2.5-4s0.9-3.1,0.9-4.8s-0.3-3.3-0.9-4.8s-1.4-2.8-2.5-4c-1.1-1.1-2.3-2.1-3.8-2.7
			C272.2,67.9,270.6,67.5,268.9,67.5z"/>
		<path class="st2" d="M317.4,87.7v17.1h-14.2V87.7l-16.1-32.3H303l7.4,15.5l7.3-15.5h15.9L317.4,87.7z"/>
		<path class="st2" d="M331.8,104.7V55.4H371v12.4h-26.1v6.1h24.7v12.4h-24.7v6.1H371v12.4h-39.2V104.7z"/>
		<path class="st2" d="M398.1,106.2c-3.6,0-7-0.7-10.1-2.1s-5.9-3.3-8.2-5.7c-2.3-2.4-4.1-5.1-5.4-8.3c-1.3-3.2-2-6.5-2-10.1
			c0-3.5,0.7-6.9,2-10.1s3.1-5.9,5.4-8.3c2.3-2.4,5-4.3,8.2-5.7c3.1-1.4,6.5-2.1,10.1-2.1c3.3,0,6.5,0.6,9.5,1.8s6,3.1,8.8,5.7
			l-10.7,9.4c-2.6-1.8-5.1-2.8-7.5-2.8c-1.6,0-3.2,0.3-4.6,1c-1.4,0.6-2.6,1.5-3.6,2.6s-1.8,2.4-2.4,3.8s-0.9,3-0.9,4.6
			s0.3,3.1,0.9,4.6s1.4,2.8,2.4,3.9s2.2,2,3.6,2.6s2.9,1,4.6,1c3.8,0,7.1-1.8,9.9-5.5l11,9.1c-2.8,3.4-6,6.1-9.5,7.8
			C405.9,105.4,402.1,106.2,398.1,106.2z"/>
		<path class="st2" d="M454.3,68.2h-12.7v36.5h-14.1V68.2h-12.7l-1.2-1.2V55.4h41.9V67L454.3,68.2z"/>
		<path class="st2" d="M477.8,106.2c-3.6,0-7-0.7-10.2-2.1s-6-3.2-8.3-5.6c-2.4-2.3-4.2-5.1-5.6-8.3c-1.4-3.2-2.1-6.6-2.1-10.2
			s0.7-7,2.1-10.1c1.4-3.2,3.2-5.9,5.6-8.3c2.4-2.4,5.2-4.2,8.3-5.6c3.2-1.4,6.6-2.1,10.2-2.1s7,0.7,10.2,2.1c3.2,1.4,6,3.2,8.3,5.6
			c2.4,2.3,4.2,5.1,5.6,8.3s2.1,6.6,2.1,10.2s-0.7,7-2.1,10.2s-3.2,6-5.6,8.3s-5.2,4.2-8.3,5.6C484.8,105.6,481.4,106.2,477.8,106.2
			z M477.8,67.5c-1.7,0-3.3,0.3-4.7,1c-1.5,0.7-2.7,1.6-3.8,2.7c-1.1,1.1-1.9,2.5-2.5,4s-0.9,3.1-0.9,4.8s0.3,3.3,0.9,4.8
			s1.5,2.9,2.5,4c1.1,1.2,2.3,2.1,3.8,2.8c1.5,0.7,3,1,4.7,1s3.3-0.3,4.7-1c1.5-0.7,2.7-1.6,3.8-2.8c1.1-1.2,1.9-2.5,2.5-4
			s0.9-3.1,0.9-4.8s-0.3-3.3-0.9-4.8s-1.4-2.8-2.5-4c-1.1-1.1-2.3-2.1-3.8-2.7C481.1,67.9,479.5,67.5,477.8,67.5z"/>
		<path class="st2" d="M558.9,104.7h-14l-21.6-57.9h17.4l11.2,30l11.2-30h17.4L558.9,104.7z"/>
		<path class="st2" d="M618.8,104.7l-10.1-18h-9.8l0.1,18h-16V46.6h29c1.4,0,2.8,0.3,4.3,0.8c1.4,0.5,2.8,1.2,4.2,2.1
			c1.3,0.9,2.6,1.9,3.7,3c1.1,1.1,2.1,2.2,2.9,3.4c1,1.4,1.8,3.1,2.3,5.1c0.5,1.9,0.8,3.8,0.8,5.5c0,2.9-0.7,5.6-2,8.1
			s-3.2,4.6-5.6,6.3l13.6,24h-17.4V104.7z M607.5,59.6h-9.1v12.5h9.1c0.9,0,1.7-0.2,2.5-0.5s1.5-0.8,2.1-1.3c0.6-0.6,1.1-1.2,1.4-2
			c0.3-0.7,0.5-1.6,0.5-2.5s-0.2-1.7-0.5-2.5c-0.4-0.7-0.8-1.4-1.4-2c-0.6-0.6-1.3-1-2.1-1.3C609.2,59.8,608.4,59.6,607.5,59.6z"/>
		<path class="st2" d="M635.5,104.7V46.6h15.6v58.1H635.5z"/>
		<path class="st2" d="M682.6,106.5c-4.3,0-8.3-0.8-12-2.4s-7-3.8-9.7-6.7c-2.8-2.8-5-6.1-6.6-9.8c-1.6-3.7-2.4-7.7-2.4-11.9
			c0-4.2,0.8-8.1,2.4-11.9c1.6-3.7,3.8-7,6.6-9.8s6-5,9.7-6.7c3.7-1.6,7.7-2.4,12-2.4c3.9,0,7.6,0.7,11.2,2.1s6.9,3.5,10,6.2
			l-12,10.5c-2.9-2-5.9-3.1-9.1-3.1c-2.1,0-4,0.4-5.8,1.2s-3.3,1.9-4.6,3.3s-2.3,3-3.1,4.8c-0.7,1.8-1.1,3.7-1.1,5.7s0.4,4,1.1,5.8
			c0.7,1.8,1.8,3.4,3.1,4.8s2.8,2.5,4.6,3.3s3.7,1.2,5.8,1.2c2.4,0,4.6-0.5,6.7-1.6c2.1-1.1,3.9-2.6,5.4-4.6l12.4,10
			c-3.1,3.8-6.8,6.7-11,8.8C691.9,105.5,687.4,106.5,682.6,106.5z"/>
	</g>
	<circle class="st3" cx="70.5" cy="70" r="51.9"/>
	<g class="st4">
		<path class="st5" d="M71,112.7c-1.6-2.3-2.9-4.4-2.8-7.4c0.2-9,0.1-18-0.1-27c-0.1-6.4-1.4-12.5-4.9-17.9
			c-0.8-1.3-1.8-2.5-2.9-3.5c-2.6-2.5-2.6-2.6,0.2-4.9c5.3-4.2,11.3-3.5,15.9,2.1c4.3,5.3,6.5,11.6,6.9,18.3
			c0.5,7.7,0.5,15.4,0.8,23.1c0.1,1.9-1.1,2.7-2.2,3.8c-3.2,3-6.2,6.1-8.6,9.7C72.4,110.1,71.8,111.4,71,112.7z"/>
		<path class="st5" d="M64.8,104.1c-3.5-3.4-6.7-6.5-9.9-9.7c-4.6-4.6-9.2-9.2-13.8-13.8c-0.7-0.7-1.3-1.3-1.3-2.3
			c0.3-5.7,1.2-11.1,4.3-16c4.6-7.3,11.8-7.1,16.4,0.2c3,4.9,4.1,10.2,4.2,15.8c0.2,8.1,0.1,16.3,0.2,24.4
			C64.9,103,64.9,103.3,64.8,104.1z"/>
		<path class="st5" d="M87,93.5c0-6.3,0.2-12,0-17.6c-0.2-7-1.8-13.7-5.3-19.9c-0.8-1.4-0.5-2,0.8-2.7c3.5-1.9,7.6-1.4,10.8,1.5
			c3.6,3.2,5.6,7.4,6.9,11.9c1,3.6,1.5,7.3,1.6,11c0,0.9,0,1.6-0.7,2.3c-4.3,4.2-8.5,8.5-12.8,12.7C88,92.9,87.8,93,87,93.5z"/>
		<path class="st5" d="M67.3,47.2c-5.1,0-9.1-4.1-9.1-9.2s4.1-9.1,9.2-9.1s9.2,4.2,9.2,9.2C76.5,43.2,72.4,47.3,67.3,47.2z"/>
		<path class="st5" d="M86.8,50.3c-4.6,0-8.4-3.8-8.4-8.4c0-4.7,3.7-8.3,8.3-8.4c4.7,0,8.4,3.6,8.4,8.3
			C95.2,46.5,91.5,50.3,86.8,50.3z"/>
		<path class="st6" d="M59.3,48.4c-0.1,3.9-3.3,7-7.3,6.9c-3.8-0.1-6.9-3.3-6.8-7.1c0.1-3.8,3.2-6.9,7-6.9
			C56.1,41.2,59.4,44.5,59.3,48.4z"/>
	</g>
	<path class="st2" d="M136.7,131.7l-4.5,4.5c-1.8,1.8-4.6,1.8-6.4,0l-17.3-17.3c-1.8-1.8-1.8-4.6,0-6.4l4.5-4.5
		c1.8-1.8,4.6-1.8,6.4,0l17.3,17.3C138.4,127,138.4,129.9,136.7,131.7z"/>
</g>
</svg>
