<svg xmlns="http://www.w3.org/2000/svg" width="1067.09" height="986.553" viewBox="0 0 1067.09 986.553"><g transform="translate(-36.1 -22.9)"><g transform="translate(489.236 190.406)"><path d="M328.1,171.625s-4.59-3.792-11.375-9.38c-.2-.2-.6-.4-.8-.6-13.97-11.575-36.122-30.135-44.1-37.319l-.4-.4-2.2-2.2a15.532,15.532,0,0,1-3.991-11.974l-1.8-1.6c-.2-.2-.4-.6-.2-.8a.2.2,0,0,1,.2-.2c.2-.4.8-.4,1.2-.2l1.8,1.4s1.2-.4,5.588-.2c2.994.2,6.785,2.594,8.781,3.991a2.754,2.754,0,0,1,.8.6,2.469,2.469,0,0,1,.6.4l43.107,36.321.8.6,6.985,5.987c.2.2.2.2.4.2.4.2.8,0,1.2-.4a1.214,1.214,0,0,0,0-1.6l-12.174-10.976a1.466,1.466,0,0,1-.4-1.2c0-.2.2-.4.4-.6a1.207,1.207,0,0,1,1.6,0l13.571,12.373a1.929,1.929,0,0,1,0,2.794l-1.8,1.8,2.395,1.8C337.88,172.424,328.1,171.625,328.1,171.625Z" transform="translate(-263.159 -106.834)" fill="#697ccc"/><path d="M290.5,140.873c-.2-.2-.6-.4-.8-.6l9.18-11.974.8.6Z" transform="translate(-236.732 -85.461)" fill="#dce4ff"/><path d="M268.2,122.073l-.4-.4-.4-.4h0l8.981-11.775a2.754,2.754,0,0,1,.8.6Z" transform="translate(-258.935 -104.18)" fill="#dce4ff"/></g><g transform="translate(417.273 592.866)"><path d="M340.678,506.194s-17.762-23.349-17.961-26.742c-.4-3.393,2.794-7.584,2.794-7.584l12.373,9.38-11.775-18.36,1.4-16.165,18.759,15.766-8.781-22.751,16.564-12.373,8.781,14.768-4.391-18.36L378,416.588l4.989,8.382,2.594-12.373,21.952-1.4L386.18,433.352l-40.113,57.076-5.388,15.766" transform="translate(-224.929 -206.244)" fill="#319f5c"/><path d="M333.695,510.285V504.5l29.536-8.981-14.768-5.189,20.755,1,8.581-9.779-16.764-3.792h19.757l4.989-16.564-15.766-10.378,18.959,1.2,2.794-12.373-7.184-5.987h10.178l4.59-22.551s-60.469,40.113-66.855,89.606l-1.2,9.579Z" transform="translate(-216.349 -206.343)" fill="#378758"/><path d="M356.122,562.729l13.371-20.556L357.918,426.224l-7.983-11.375-12.972,16.165,7.184-24.148L322,377.729l-12.373,8.981,1.8-19.159L273.9,345l35.723,55.879,18.759,41.71Z" transform="translate(-273.501 -272.158)" fill="#378758"/><path d="M273.9,345s84.218,94,84.218,232.5h-3.991l-.4-12.573L321,522.615,306.629,484.1l21.953,2.594-21.753-10.378L300.243,438.4,322,437.6,297.05,420.636l-6.187-26.942L301.64,390.9l-12.972-5.588Z" transform="translate(-273.501 -272.158)" fill="#329e5d"/><path d="M340.755,507.494s17.762-23.349,17.961-26.742c.4-3.393-2.794-7.584-2.794-7.584l-12.373,9.38,11.774-18.36-1.4-16.165-18.759,15.766,8.781-22.751-16.564-12.373L318.6,443.433l4.391-18.36-19.558-7.184-4.989,8.382L295.853,413.9,273.9,412.5l21.354,22.152,40.113,57.076,5.388,15.766" transform="translate(-273.501 -204.949)" fill="#378657"/><path d="M320.9,595.878s29.935-39.514,31.332-44.7H336.466l22.152-17.163L368.8,494.1l-27.141,6.785,29.137-28.339-2-41.909-18.959,10.577L368.8,416.865l-4.79-40.313-11.974,1.4,9.579-12.772-3.193-26.143-4.989-2.2,4.391-6.785L352.032,308.5,320.7,575.322v20.556" transform="translate(-226.903 -308.5)" fill="#378657"/><path d="M339.358,511.585V505.8l-29.536-8.981,14.768-5.189-20.755,1-8.581-9.779,16.764-3.792H292.26l-4.989-16.564,15.766-10.378-18.959,1.2-2.794-12.373,7.185-5.987H278.29L273.7,412.4s60.469,40.113,66.855,89.606l1.2,9.579Z" transform="translate(-273.7 -205.049)" fill="#319f5c"/><path d="M327.766,591.191s-18.36-36.72-15.367-54.482l15.367,8.981L312,527.928v-44.1l19.558,14.369L312,475.442l9.779-50.092,20.755,12.772-15.167-31.731,10.378-34.126,12.373,2.994-7.983-12.772,9.978-27.74H356.5l-2.994-8.981L360.894,310l-27.74,279.2-5.388,24.347h-4.391Z" transform="translate(-235.566 -307.006)" fill="#329e5d"/><path d="M296.3,478.5l12.772,77.033h63.862L384.309,478.5Z" transform="translate(-251.198 -139.234)" fill="#3274cb"/><path d="M383.7,503.406H305.868A14.947,14.947,0,0,1,290.9,488.438V474.868A14.947,14.947,0,0,1,305.868,459.9H383.7a14.947,14.947,0,0,1,14.968,14.968v13.571A15.077,15.077,0,0,1,383.7,503.406Z" transform="translate(-256.574 -157.754)" fill="#6596d8"/></g><g transform="translate(36.1 22.9)"><path d="M507.6,186.4" transform="translate(433.363 139.894)" fill="none" stroke="#8e2919" stroke-miterlimit="10" stroke-width="1"/><path d="M459.742,123.083H363.75a23.166,23.166,0,0,1-23.15-23.15V46.05A23.166,23.166,0,0,1,363.75,22.9h95.992a23.167,23.167,0,0,1,23.15,23.15V99.933A22.915,22.915,0,0,1,459.742,123.083Z" transform="translate(267.084 -22.9)" fill="#fece26"/><g transform="translate(595.311 18.959)"><path d="M455.538,32.4H359.546A25.168,25.168,0,0,0,334.4,57.546v53.883a25.168,25.168,0,0,0,25.146,25.146H427.2v-3.991H359.546a21.165,21.165,0,0,1-21.154-21.154V57.546a21.165,21.165,0,0,1,21.154-21.154h95.992a21.165,21.165,0,0,1,21.154,21.154V96.661h3.991V57.745A25.211,25.211,0,0,0,455.538,32.4Z" transform="translate(-334.4 -32.4)" fill="#009788"/></g><g transform="translate(342.059 187.594)"><path d="M415.25,116.9h-32.53v3.991h32.53a38.838,38.838,0,0,1,38.916,38.916v36.92a38.838,38.838,0,0,1-38.916,38.916H250.407a38.838,38.838,0,0,1-38.916-38.916v-36.92a38.966,38.966,0,0,1,38.916-38.916H301.3V116.9h-50.89A42.969,42.969,0,0,0,207.5,159.807v36.92a42.969,42.969,0,0,0,42.907,42.907H415.25a42.841,42.841,0,0,0,42.907-42.907v-36.92A42.841,42.841,0,0,0,415.25,116.9Z" transform="translate(-207.5 -116.9)" fill="#009788"/></g><rect width="73.241" height="4.79" transform="translate(404.125 229.902)" fill="#009788"/><rect width="30.933" height="4.79" transform="translate(497.124 230.9)" fill="#1a1a1a"/><rect width="73.241" height="4.79" transform="translate(404.125 264.427)" fill="#009788"/><line y1="3.991" transform="translate(436.056 187.594)" fill="none" stroke="#037267" stroke-miterlimit="10" stroke-width="1"/><line y2="3.991" transform="translate(517.28 187.594)" fill="none" stroke="#00776b" stroke-miterlimit="10" stroke-width="1"/><rect width="49.293" height="49.293" transform="translate(360.42 369.001)" fill="#fece26"/><g transform="translate(634.027 446.234)"><path d="M408.083,300.782H353.8V246.5h54.283Zm-50.291-3.991h46.3v-46.3h-46.3Z" transform="translate(-353.8 -246.5)" fill="#009788"/></g><g transform="translate(342.059 355.63)"><path d="M261.782,255.382H207.5V201.1h54.282Zm-50.291-3.991h46.3v-46.3h-46.3Z" transform="translate(-207.5 -201.1)" fill="#009788"/></g><g transform="translate(115.749 144.687)"><path d="M758.262,553.808H140a45.907,45.907,0,0,1-45.9-45.9V141.3A45.907,45.907,0,0,1,140,95.4H758.063a45.907,45.907,0,0,1,45.9,45.9V508.107A45.823,45.823,0,0,1,758.262,553.808ZM140,99.391A41.9,41.9,0,0,0,98.091,141.3V508.107A41.9,41.9,0,0,0,140,550.016H758.063a41.9,41.9,0,0,0,41.909-41.909V141.3a41.9,41.9,0,0,0-41.909-41.909Z" transform="translate(-94.1 -95.4)" fill="#009788"/></g><path d="M186.592,168.553H147.477A10.732,10.732,0,0,1,136.7,157.777h0A10.732,10.732,0,0,1,147.477,147h39.115a10.732,10.732,0,0,1,10.777,10.777h0A10.732,10.732,0,0,1,186.592,168.553Z" transform="translate(64.065 100.664)" fill="#007b6f"/><g transform="translate(0 351.24)"><path d="M300.328,399.665H73.419A37.39,37.39,0,0,1,36.1,362.346V236.219A37.39,37.39,0,0,1,73.419,198.9H300.328a37.39,37.39,0,0,1,37.319,37.319V362.346A37.519,37.519,0,0,1,300.328,399.665ZM73.419,202.891a33.387,33.387,0,0,0-33.328,33.328V362.346a33.387,33.387,0,0,0,33.328,33.328H300.328a33.387,33.387,0,0,0,33.328-33.328V236.219a33.387,33.387,0,0,0-33.328-33.328Z" transform="translate(-36.1 -198.9)" fill="#009788"/></g><path d="M334.456,235.224v14.768H37.1V235.224A35.261,35.261,0,0,1,72.424,199.9H299.332A35.219,35.219,0,0,1,334.456,235.224Z" transform="translate(-35.104 153.335)" fill="#009788"/><circle cx="6.586" cy="6.586" r="6.586" transform="translate(29.935 373.99)" fill="#fff"/><circle cx="6.586" cy="6.586" r="6.586" transform="translate(50.092 373.99)" fill="#fff"/><circle cx="6.586" cy="6.586" r="6.586" transform="translate(69.649 373.99)" fill="#fff"/><path d="M288.873,349.041H62.363A16.949,16.949,0,0,1,45.4,332.078V246.463A16.949,16.949,0,0,1,62.363,229.5h226.51a16.949,16.949,0,0,1,16.963,16.963v85.615A16.949,16.949,0,0,1,288.873,349.041Z" transform="translate(-26.84 182.807)" fill="#feca55"/><rect width="79.228" height="86.612" transform="translate(180.21 428.073)" fill="#fff"/><rect width="88.808" height="6.586" transform="translate(35.523 490.139)" fill="#fff"/><rect width="88.808" height="6.586" transform="translate(35.523 502.512)" fill="#fff"/><path d="M136.29,291.4a1.6,1.6,0,1,1-1.6,1.6C134.893,292,135.492,291.4,136.29,291.4Zm33.128-21.154a1.6,1.6,0,1,1-1.6,1.6C168.021,271.046,168.62,270.248,169.418,270.248Zm-17.961,0a1.6,1.6,0,1,1,0,3.193,1.469,1.469,0,0,1-1.6-1.6A1.574,1.574,0,0,1,151.457,270.248Zm33.128-20.955a1.574,1.574,0,0,1,1.6,1.6,1.469,1.469,0,0,1-1.6,1.6,1.574,1.574,0,0,1-1.6-1.6A1.469,1.469,0,0,1,184.586,249.294Zm0-2.994a4.642,4.642,0,0,0-4.59,4.59,5.66,5.66,0,0,0,.8,2.594l-10.178,14.169a2.531,2.531,0,0,0-1.2-.2,4.315,4.315,0,0,0-4.191,2.994h-9.579a4.315,4.315,0,0,0-4.191-2.994,4.642,4.642,0,0,0-4.59,4.59,5.66,5.66,0,0,0,.8,2.594l-10.178,14.169a2.531,2.531,0,0,0-1.2-.2,4.59,4.59,0,1,0,4.59,4.59,5.659,5.659,0,0,0-.8-2.594l10.178-14.169a2.531,2.531,0,0,0,1.2.2,4.315,4.315,0,0,0,4.191-2.994h9.579a4.5,4.5,0,0,0,4.191,2.994,4.642,4.642,0,0,0,4.59-4.59,5.66,5.66,0,0,0-.8-2.594l10.178-14.169a2.531,2.531,0,0,0,1.2.2,4.59,4.59,0,1,0,0-9.18Z" transform="translate(59.087 199.535)" fill="#dc2e94"/><rect width="130.118" height="106.37" transform="translate(432.065 405.921)" fill="#bcd7fd"/><rect width="60.27" height="8.382" transform="translate(449.427 426.078)" fill="#fff"/><rect width="60.27" height="8.382" transform="translate(449.427 440.646)" fill="#fff"/><rect width="60.27" height="4.191" transform="translate(449.427 455.214)" fill="#fff"/><rect width="60.27" height="4.191" transform="translate(449.427 478.364)" fill="#fff"/><rect width="32.929" height="23.948" transform="translate(520.274 425.08)" fill="#fff"/></g><path d="M275.761,110.691s-4.59,4.191-2.794,24.347c2,20.555,1.6,17.562,1.6,17.562s-5.189,5.388-2.994,10.577,23.948,26.742,23.948,26.742,58.274,153.667,155.463,151.672l13.571-74.239s-110.96-30.534-136.5-87.61c0,0,3.792-28.538-2.395-33.527s-29.736-31.133-30.334-23.948,14.169,23.948,14.968,26.543c.6,2.794-1,4.79-9.18,2.794S285.34,138.83,285.34,134.44s0-23.15-1.4-23.749S281.149,107.9,275.761,110.691Z" transform="translate(233.914 86.032)" fill="#a3685d" stroke="#6b423e" stroke-miterlimit="10" stroke-width="1.5"/><path d="M497.7,455.3s87.211-10.378,104.374-12.373l-27.341-37.718s-62.664-18.959-76.035-12.174Z" transform="translate(459.606 367.072)" fill="#a3685d" stroke="#6b423e" stroke-miterlimit="10" stroke-width="1.5"/><path d="M534.8,402.079s4.391-7.983,13.77-9.579l4.391,4.191s-4.391,8.581,1.8,10.378,10.777,3.592,16.963,12.772,34.924,46.7,34.924,46.7-5.987,5.987-13.97-1.4c-8.182-7.384-30.534-22.751-30.534-22.751Z" transform="translate(496.545 368.003)" fill="#1b2944"/><path d="M601.351,485.649,580.4,587.429s-119.342,5.388-146.882-91.8S417.748,277.7,417.748,277.7l35.922-.2s27.341,85.415,35.324,109.962c7.783,24.547,16.365,74.638,51.289,84.417C575.008,481.259,601.351,485.649,601.351,485.649Z" transform="translate(377.508 253.5)" fill="#ef9200" stroke="#f38518" stroke-miterlimit="10" stroke-width="1.5"/><path d="M457.855,559.223s-6.386-96.391-7.384-100.981-59.671,4.59-59.671,4.59l22.152,96.391h44.9Z" transform="translate(353.167 432.181)" fill="#a3685d" stroke="#6b423e" stroke-miterlimit="10" stroke-width="1.5"/><path d="M377.954,524.209l79.029,2.395s9.579-4.79,9.579-7.184,1.6,6.985,4.59,7.184a33.211,33.211,0,0,0,4.989,0s.8-15.965-4.191-17.961-44.9,0-44.9,0S366.18,513.233,377.954,524.209Z" transform="translate(338.872 482.761)" fill="#1b2944"/><path d="M408.794,647.6s75.237,11.375,100.981-26.742l-32.53-162.049s9.18-148.279,3.592-181.407L373.47,278.8s-11.375,96.391-3.193,155.663S391.232,609.88,408.794,647.6Z" transform="translate(329.786 253.4)" fill="#fdb100" stroke="#f38518" stroke-miterlimit="10" stroke-width="1.5"/><path d="M492.647,239.5s26.543,67.654,39.514,80.426c13.171,12.772,57.276,63.662,77.632,70.048s23.749,45.5,23.749,45.5-12.573,4.191-19.957-2.994-19.159-20.955-23.749-21.354-54.283-23.749-71.445-35.523-72.443-71.844-80.625-103.576C429.583,240.1,492.647,239.5,492.647,239.5Z" transform="translate(399.201 215.664)" fill="#a3685d" stroke="#6b423e" stroke-miterlimit="10" stroke-width="1.5"/><path d="M443.07,318.092s51.089-5.588,64.46-41.311c0,0-28.339-68.252-38.117-72.244S429.3,215.514,429.3,215.514Z" transform="translate(391.501 180.179)" fill="#8989dc" stroke="#8078cc" stroke-miterlimit="10" stroke-width="1.5"/><path d="M379.249,184.4,355.5,290.57l36.321,4.59-6.785,79.428H519.545l9.779-175.42C529.324,199.368,397.01,202.76,379.249,184.4Z" transform="translate(318.02 160.802)" fill="#ada8e5" stroke="#8078cc" stroke-miterlimit="10" stroke-width="1.5"/><path d="M432.772,236s-22.751,12.573-59.072,7.983" transform="translate(336.141 212.179)" fill="#ada8e5" stroke="#8078cc" stroke-linecap="round" stroke-miterlimit="10" stroke-width="1.5"/><path d="M414.8,138.4s-16.564,16.764-19.159,27.141c0,0-12.772-1.8-13.97,1s5.787,8.581,6.187,11.176-13.571,44.5,14.169,47.3c8.781,3.393,18.56,5.588,22.751,16.564s60.27-69.45,60.27-69.45Z" transform="translate(343.938 115.001)" fill="#a0635b"/><path d="M386.2,165.889s5.388,2.794,10.577-4.989" transform="translate(348.587 137.404)" fill="#a3685d" stroke="#6b423e" stroke-linecap="round" stroke-linejoin="round" stroke-miterlimit="10" stroke-width="1.5"/><path d="M404.9,167.286s1.2-7.384,10.976-7.184" transform="translate(367.206 136.605)" fill="#a3685d" stroke="#6b423e" stroke-linecap="round" stroke-linejoin="round" stroke-miterlimit="10" stroke-width="1.5"/><ellipse cx="3.792" cy="2.794" rx="3.792" ry="2.794" transform="translate(747.922 286.574) rotate(-70.342)" fill="#543332"/><path d="M403.634,176.958s-13.77-13.371-2.395-26.543c0,0-14.568-18.36,5.588-32.929s34.326,8.781,34.326,8.781,33.128-10.178,40.512,20.156c0,0,11.575-.4,11.575,11.974,0,0,17.163.6,16.365,18.36,0,0,14.568-8.581,23.948,5.388,9.18,13.97-1.2,26.343-1.2,26.343s15.566-2.794,19.159,14.768S537.544,248,537.544,248s12.972,26.942-16.564,29.736c0,0,4.191,18.161-18.959,22.751,0,0-12.972,21.753-39.714,18.56s-34.924-26.742-34.924-26.742-17.362,3.393-24.148-15.965,9.38-21.553,9.38-21.553-10.378-14.568-2-29.137c0,0,24.148,13.371,26.942-13.171,0-6.985-12.573-21.753-28.738-7.384,0,0-3.792-.2,2.395-9.18C411.418,196.316,399.843,191.726,403.634,176.958Z" transform="translate(358.494 89.415)" fill="#172540"/></g></svg>