<svg xmlns="http://www.w3.org/2000/svg" xmlns:xlink="http://www.w3.org/1999/xlink" width="1050.06" height="854" viewBox="0 0 1050.06 854"><defs><linearGradient id="a" x1="0.186" y1="0.12" x2="0.816" y2="0.879" gradientUnits="objectBoundingBox"><stop offset="0" stop-color="#d1effc"/><stop offset="1" stop-color="#33bdf9"/></linearGradient></defs><g transform="translate(133.002 81)"><circle cx="386.5" cy="386.5" r="386.5" transform="translate(81.53)" fill="url(#a)"/><rect width="237" height="367" transform="translate(445.53 218)" fill="#fff"/><line x2="243" transform="translate(398.03 442)" fill="none" stroke="#000" stroke-miterlimit="10" stroke-width="1"/><line x2="243" transform="translate(398.03 466)" fill="none" stroke="#000" stroke-miterlimit="10" stroke-width="1"/><line x2="243" transform="translate(398.03 490)" fill="none" stroke="#000" stroke-miterlimit="10" stroke-width="1"/><line x2="243" transform="translate(398.03 514)" fill="none" stroke="#000" stroke-miterlimit="10" stroke-width="1"/><circle cx="62" cy="62" r="62" transform="translate(502.03 263)" fill="#f2f2f2"/><rect width="98" height="91" transform="translate(641.03 348.5)" fill="#50b89d" opacity="0.7"/><text transform="translate(666.15 408.41)" fill="#fff" font-size="26" font-family="SegoeUI, Segoe UI"><tspan x="0" y="0">&lt; / &gt;</tspan></text><line x2="529" transform="translate(36.03 56)" fill="none" stroke="#000" stroke-miterlimit="10" stroke-width="1"/><rect width="529" height="348" transform="translate(36.03 37.5)" fill="none" stroke="#000" stroke-miterlimit="10" stroke-width="1"/><line x2="243" transform="translate(264.03 101)" fill="none" stroke="#000" stroke-miterlimit="10" stroke-width="1"/><line x2="243" transform="translate(264.03 125)" fill="none" stroke="#000" stroke-miterlimit="10" stroke-width="1"/><line x2="243" transform="translate(264.03 149)" fill="none" stroke="#000" stroke-miterlimit="10" stroke-width="1"/><line x2="243" transform="translate(264.03 173)" fill="none" stroke="#000" stroke-miterlimit="10" stroke-width="1"/><path d="M154.03,129l-43.3,75h86.6Z" fill="#50b89d" opacity="0.44"/><circle cx="4.5" cy="4.5" r="4.5" transform="translate(43.03 42.5)" fill="#ab8de5"/><circle cx="4.5" cy="4.5" r="4.5" transform="translate(58.53 42.5)" fill="#73e5e2"/><circle cx="4.5" cy="4.5" r="4.5" transform="translate(74.03 42.5)" fill="#50b89d"/><path d="M269.03,321.25l15-13.25h-15.3Z" fill="#ab8de5"/><rect width="116" height="51" rx="20.68" transform="translate(254.03 258.5)" fill="#ab8de5"/><circle cx="4.5" cy="4.5" r="4.5" transform="translate(292.03 279.5)" fill="#fff"/><circle cx="4.5" cy="4.5" r="4.5" transform="translate(307.53 279.5)" fill="#fff"/><circle cx="4.5" cy="4.5" r="4.5" transform="translate(323.03 279.5)" fill="#fff"/><path d="M744.03,171.25l-15-13.25h15.3Z" fill="#5797e1"/><rect width="116" height="51" rx="20.68" transform="translate(759.03 159.5) rotate(180)" fill="#5797e1"/><circle cx="4.5" cy="4.5" r="4.5" transform="translate(712.03 129.5)" fill="#fff"/><circle cx="4.5" cy="4.5" r="4.5" transform="translate(696.53 129.5)" fill="#fff"/><circle cx="4.5" cy="4.5" r="4.5" transform="translate(681.03 129.5)" fill="#fff"/><circle cx="4.5" cy="4.5" r="4.5" transform="translate(731.53 38)" fill="#f98b67"/><circle cx="4.5" cy="4.5" r="4.5" transform="translate(741.03 56.5)" fill="#f98b67"/><circle cx="7" cy="7" r="7" transform="translate(635.03 236.5)" fill="#f98b67"/><circle cx="7" cy="7" r="7" transform="translate(676.03 260.5)" fill="#f98b67"/><circle cx="7" cy="7" r="7" transform="translate(46.03 268.5)" fill="#f98b67"/><path d="M658.23,595.25v-1l-2.4-3-5.55-6.74-5.9-7.14s-5.68-3.93-7.14-4.61c-5.32-2.46-10.56-4.34-16.82-4.34-3.85,0-18.24.58-18.27,3,0,3.59,20.15,17.18,34.93,23.78C643.57,595.25,658.23,595.25,658.23,595.25Z" fill="#19b178"/><path d="M655.18,595.25C634.67,579.47,592.8,493.4,603.54,461.5c22.86,11.65,47.94,51.82,59.77,85.74a60.791,60.791,0,0,1,1.53,6.71l4.8,22,1.16,19.33Z" fill="#ffc359"/><path d="M669.18,595.25c-6.92-5.62-9.13-22.26-9.19-28.47-.11-11.59,1.67-20.13,11.58-32.88S678.84,500,692,485.73s21.88-18.25,37.5-18.25,20.58,25.32,20.5,31.69c-.18,25.7-16.37,29.34-26.25,41.6-7.17,8.9-7.73,16.18-9.9,20.34-11.64,22.42-21.1,30.85-28.1,34.14" fill="#19b178"/><path d="M673,593.39c.2-43.83,46.39-109.66,56.26-119.53" fill="none" stroke="#fff" stroke-linecap="round" stroke-linejoin="round" stroke-width="0.4"/><path d="M675.49,573.47c-5.11-5.57-9.76-21.36-9.06-25.46" fill="none" stroke="#fff" stroke-linecap="round" stroke-linejoin="round" stroke-width="0.4"/><path d="M662.4,591.47C655.16,578.64,620.81,516.08,608,470" fill="none" stroke="#fff" stroke-linecap="round" stroke-linejoin="round" stroke-width="0.4"/><path d="M685.79,595.25h21.52l-18,67H641.18l-17.71-67h62.32" fill="#b37361"/><path d="M609.19,572.78c10.49.72,23.69,1.2,33,7.55" fill="none" stroke="#fff" stroke-linecap="round" stroke-linejoin="round" stroke-width="0.4"/><path d="M775.47,321c-2.53,12.07-20.91,161.79-14.9,197.55s104,110.69,108.29,112c5-3.67,12.36-15.7,12.36-15.7S809.37,531.56,808,528.22,823.74,332,823.74,332Z" fill="#352767"/><path d="M892.49,348.25,819.18,647.26H794.49l25.02-311.93Z" fill="#42327b"/><path d="M840.42,177.05c10.12,0,62.91,1.71,72.45,20.29s.55,104.46-5.38,107.79c-3.2,1.79-4.07.05-5,3.69s-10,39.43-10,39.43c-5.76.16-89.74-12.49-117-27.28.16-4.11,1.48-14.8,1.48-15.62-3.62,1.48-8,1.79-9.2,0-10.64-16.11,5.22-100.1,16.6-117C789.21,181.1,824.18,177.1,840.42,177.05Z" fill="#ffc359"/><path d="M875.18,307.45c2.48,0,23.83,15,22,22.37,1.5-5.92,6.22-24.21,6.22-24.21C901.37,306,877,307.48,875.18,307.45Z" fill="#1f161e"/><path d="M853.49,186.85c0,3.26-25.71,3.26-25.71,0v-33h25.71Z" fill="#f8cdba"/><path d="M838.74,161.66c2,0,14.75,5.64,14.75,8.78V153.85C850.31,153.85,838.74,161.66,838.74,161.66Z" fill="#1f161e"/><circle cx="25.01" cy="25.01" r="25.01" transform="translate(810.21 114.05)" fill="#f8cdba"/><path d="M826.76,102.5c-12.84,0-20.84,8.06-20.84,18.39,0,8.59,2.08,13.45,4.53,14.68,1.55-8.34,4.92-12.2,7.71-13.86,2.17,1.66,5.88,5.68,10.84,6.92s17.87,1,28.3,8.58c3.41-3.1,6.81-7.13,6.81-11.88s-2.1-10.71-14.45-14.15C841.5,108.91,840.36,102.5,826.76,102.5Z" fill="#1f161e"/><ellipse cx="4.38" cy="2.28" rx="4.38" ry="2.28" transform="translate(807.47 141.93)" fill="#fa9e9f"/><ellipse cx="4.38" cy="2.28" rx="4.38" ry="2.28" transform="translate(835.02 141.93)" fill="#fa9e9f"/><path d="M822.55,139.48c-.82,1.17-5,6.08-.59,8.06" fill="none" stroke="#1f161e" stroke-linecap="round" stroke-miterlimit="10" stroke-width="1"/><path d="M830.79,153.28c1.32,0,3.35-1.64,4.42-3.11" fill="none" stroke="#1f161e" stroke-linecap="round" stroke-miterlimit="10" stroke-width="1"/><circle cx="5.78" cy="5.78" r="5.78" transform="translate(852.56 136.16)" fill="#f8cdba"/><path d="M875.76,226.26c-.45,5.52-2.21,32.8-1.55,36.39C865.82,265.57,789,302,775.71,306" fill="none" stroke="#1f161e" stroke-linecap="round" stroke-miterlimit="10" stroke-width="1"/><path d="M786.54,217.65c-1.77,6.18-7.73,34.23-3.54,47.26" fill="none" stroke="#1f161e" stroke-linecap="round" stroke-miterlimit="10" stroke-width="1"/><path d="M806.15,293.24c4,2.81,42.34,19.78,95.35,13.38" fill="none" stroke="#1f161e" stroke-linecap="round" stroke-miterlimit="10" stroke-width="1"/><path d="M802.48,264.91c2.57.41-5.81-6.28-10.56-3.79s-11.15,13.76-9.84,16.37a3.38,3.38,0,0,0,5,1.66C788.37,278.32,798,264.19,802.48,264.91Z" fill="#f8cdba"/><path d="M880.4,616.08c1.37,1,13.52,9.22,13.62,14.4s-11.32,22.35-13.62,22.84-3.94-1.45-3.94-4.92,4.34-9.55,3.76-12.25-6.19-7.64-9.07-7.73" fill="#1f161e"/><path d="M816.84,647.26c0,2.38,1.38,17.32-1.38,18.71s-33.22,2.21-34.6.83-2.22-4.29-1-5.12,13-3.19,14.6-4.29,3.81-7,3-10.13" fill="#1f161e"/><rect width="193.38" height="98.09" transform="translate(26.01 536.34)" fill="#b37361"/><path d="M314.66,490.37c.84,5,15.1,119.31,17.41,121.2s26.84,6.08,28.94,2.94c.42-5,1-84.72,2.3-91.85" fill="#19b178"/><path d="M38.76,466.52c-9.89-4.87,10.73,91.67,65,91.67s145.62-82.67,160.41-82.67c32.65,0,109.94,64.1,116,64.1,4.64-4.64,13.92-12.76,13.92-16s-74-125-129.37-125C243.25,398.65,61.09,477.55,38.76,466.52Z" fill="#22c88a"/><path d="M69.3,468.16c10.85-2.46,24.35-8.83,36.3-15.34-32.51,10.63-59.15,17.5-66.84,13.7-5.24-2.58-1.92,23.26,10.4,48.15C46.93,509.86,43.75,474,69.3,468.16Z" fill="#19b178"/><path d="M93.22,298.8c8.55.23,53.06-1.08,65.26,10.54,9.05,8.62,37.19,82.75,41.53,108.78C181.11,427.73,44.79,493,2.6,464.3,1.67,442,6,353.35,33.59,306.86,43.68,300.14,85,298.59,93.22,298.8Z" fill="#fde4df"/><path d="M110.56,277.59h-26v27.94c0,7,26,6.94,26,0Z" fill="#f8cdba"/><path d="M84.56,294.46c0-3.1,8.59-10.89,13.9-10.61.13-3.45-12.13-8.41-12.13-8.41l-1.77,4.77Z" fill="#1f161e"/><path d="M137.79,277.59a39.079,39.079,0,0,0,.88-8.23c0-20.62-16.11-37.34-36-37.34s-36,16.72-36,37.34a39.08,39.08,0,0,0,.88,8.23Z" fill="#1f161e"/><path d="M128.3,252.42c-4.41-.67-8.81-4.14-11.88-6.41C98.92,258.83,87.71,259,86.5,259s-6.14,7.08-8.41,7.88l-.2-.12a27.3,27.3,0,1,0,52.47-14.33,8.36,8.36,0,0,1-2.06-.01Z" fill="#f8cdba"/><circle cx="10.62" cy="10.62" r="10.62" transform="translate(72.55 215.43)" fill="#1f161e"/><path d="M87.9,258.43a4.47,4.47,0,0,0,0,8.93" fill="none" stroke="#1f161e" stroke-linecap="round" stroke-miterlimit="10" stroke-width="1"/><path d="M121.94,259c1.31,1.75,4.68,4.82,0,8.07" fill="none" stroke="#1f161e" stroke-linecap="round" stroke-miterlimit="10" stroke-width="1"/><path d="M107.75,269.41c0,1.31.56,4.44,3.37,5.25" fill="none" stroke="#1f161e" stroke-linecap="round" stroke-miterlimit="10" stroke-width="1"/><ellipse cx="4.12" cy="2.14" rx="4.12" ry="2.14" transform="translate(94.92 265.44)" fill="#fa9e9f"/><ellipse cx="4.12" cy="2.14" rx="4.12" ry="2.14" transform="translate(125.55 265.44)" fill="#fa9e9f"/><path d="M157.54,376.07l27.79-7.15C188,373.46,201,418.07,201,418.07l-42.9,18.08C158.66,427.7,160.35,389,157.54,376.07Z" fill="#f8cdba"/><path d="M60.1,369.08c0,3.36-2.83,16.15-4.5,22.16" fill="none" stroke="#1f161e" stroke-linecap="round" stroke-miterlimit="10" stroke-width="1"/><path d="M157.54,376.07c-.67-5.29-4.59-35.1-11.26-50.79" fill="none" stroke="#1f161e" stroke-linecap="round" stroke-miterlimit="10" stroke-width="1"/><path d="M157.54,376.07l27.79-7.15C188,373.46,201,418.07,201,418.07l-42.9,18.08C158.66,427.7,160.35,389,157.54,376.07Z" fill="#f8cdba"/><path d="M381,537.26c.62,1,8.9,11.16,11.83,11.27s20.72-11.94,19.94-14.53-11.94-.9-13.86-1.81S392.7,527,392,525.1" fill="#1f161e"/><path d="M337.25,612.63c-.21,1.11-1.34,14.2.69,16.32s23.2,5.8,24.43,3.39-8-8.94-8.71-10.92-.86-8,0-9.88" fill="#1f161e"/><path d="M304.06,420.87H209.89l22.42-59.41h94.17Z" fill="#969696"/><rect width="94.17" height="2.24" transform="translate(131.42 418.63)" fill="#969696"/><path d="M55.6,391.24C53.79,398,45,427,48.58,432s93.24-6.33,117.23-13.8c6.11-2,10.64-7.24,13.35-7.92a14.31,14.31,0,0,1,16.16,10.22c-9.58,4.64-147.9,75.26-192.72,43.83-8.47-6.07,6.39-80.07,7.07-83.8C17.24,381.44,55.6,391.24,55.6,391.24Z" fill="#f8cdba"/><path d="M158.82,420c2.7-.64,5.06-1.27,7-1.87,6.11-2,10.64-7.24,13.35-7.92a14.31,14.31,0,0,1,16.16,10.22" fill="none" stroke="#1f161e" stroke-linecap="round" stroke-miterlimit="10" stroke-width="1"/><g transform="translate(648.998 -48)"><path d="M0,64.4c0-9.21,31.36-23.62,48.51-23.62,33.83,0,23.27,11.81,44.55,11.81C117.31,52.59,122.85,0,159.75,0c40.33,0,34,51.44,58.75,51.44,10.66,0,16-5,31.15-5,8.79,0,18.41,8.78,18.41,18Z" fill="#4ec5f9"/></g><g transform="translate(-133.002 -81)"><path d="M0,65.85C0,51.27,36.18,48.18,50.48,48.18c29,0,30.92-16.6,55-16.6,21.17,0,31.94,17.14,51.65,17.14C199.43,48.72,208.85,0,250,0c41.87,0,39.73,50.86,78.69,50.86,19.81,0,138.82,3.74,138.82,15Z" fill="#9bdefb"/></g></g></svg>