<svg xmlns="http://www.w3.org/2000/svg" xmlns:xlink="http://www.w3.org/1999/xlink" width="446" height="259.953" viewBox="0 0 446 259.953"><defs><clipPath id="a"><path d="M439.4,218.8c0-101.2-81.9-183.3-183-183.3s-183,82.1-183,183.3a179.89,179.89,0,0,0,3.3,34.7H436.1a179.89,179.89,0,0,0,3.3-34.7"/></clipPath><clipPath id="b"><rect width="921" height="896" transform="translate(-174 -547)"/></clipPath><clipPath id="c"><path d="M301.4,198.5c3-14,7.2-27.3,15.1-41.4s19.4-28.8,36.9-46.6c0,0-.5,3.6-2,9.6a161.278,161.278,0,0,1-7.7,23.6c-7.6,18.6-21.3,41-42.3,54.8"/></clipPath><clipPath id="d"><rect width="921" height="896" transform="translate(-402 -622)"/></clipPath><clipPath id="e"><path d="M293.9,207.5c5.9-11,3.4-25.7-1.2-38.7-4.6-13.1-11.2-24.6-13-30.3a124.162,124.162,0,0,0-5.2,28.6c-.7,15.2,2.1,32.6,19.4,40.4"/></clipPath><clipPath id="f"><rect width="921" height="896" transform="translate(-375 -650)"/></clipPath><clipPath id="g"><path d="M293.4,210.4c12-11,27-16.2,41.5-19.3s28.4-3.9,37.5-5.6c0,0-2.7,3-7.3,7.2a115.7,115.7,0,0,1-19,14c-15.6,9.2-35.9,14.8-52.7,3.7"/></clipPath><clipPath id="h"><rect width="921" height="896" transform="translate(-394 -697)"/></clipPath><clipPath id="i"><path d="M275.6,234.5c10.1-13,5.5-30.2-1.7-43.6A114.031,114.031,0,0,0,257,167.5a64.038,64.038,0,0,0-1.4,7.9,102.487,102.487,0,0,0-1,18.7c.5,14.3,4.5,31.3,21,40.4"/></clipPath><clipPath id="j"><rect width="921" height="896" transform="translate(-355 -679)"/></clipPath><clipPath id="k"><path d="M275.4,233.3c11.5-8.7,27.2-13.2,43.2-13.7s32.5,3.2,44.8,12.1a94.928,94.928,0,0,1-19.7,9.1c-11.5,3.8-26.2,5.9-38.8.4s-19.9-7.6-24.1-8.1c-4.3-.7-5.4.2-5.4.2"/></clipPath><clipPath id="l"><rect width="921" height="896" transform="translate(-376 -731)"/></clipPath><clipPath id="m"><path d="M262,246.2a4.868,4.868,0,0,1,.1,1.2c.2,0,.4.1.6.1h1.1c3-7.7,1.5-17.8-3.8-26.8-6.6-11.3-19.2-20.8-35.6-23.2a66.654,66.654,0,0,0,4.7,14c3.5,7.6,9.4,16.6,19.4,21.4,9.7,4.6,12.9,9.5,13.5,13.3"/></clipPath><clipPath id="n"><rect width="921" height="896" transform="translate(-325 -709)"/></clipPath><clipPath id="o"><path d="M158.4,202.5c-9.4-7.3-17.9-15.2-25.7-26.2s-14.9-25.1-22.3-44.8c0,0,2.5,1.7,6.5,4.9a124.362,124.362,0,0,1,14.9,14.3c11.2,12.4,23.3,30.9,26.6,51.8"/></clipPath><clipPath id="p"><rect width="921" height="896" transform="translate(-211 -643)"/></clipPath><clipPath id="q"><path d="M162.4,210.9c-6.2-8.4-17.9-11.7-29.1-12.7-11.3-1.1-22,0-26.9-.6a96.648,96.648,0,0,0,19.4,14.1c11.1,5.8,25,9.8,36.6-.8"/></clipPath><clipPath id="r"><rect width="921" height="896" transform="translate(-207 -709)"/></clipPath><clipPath id="s"><path d="M164.3,211.5c-4.3-13.2-3.2-26.7-.7-39s6.5-23.4,8.2-31a69.712,69.712,0,0,1,2.9,8.2,110.9,110.9,0,0,1,4.2,19.8c1.7,15.3-.8,33-14.6,42"/></clipPath><clipPath id="t"><rect width="921" height="896" transform="translate(-262 -653)"/></clipPath><clipPath id="u"><path d="M175.4,233.5c-6.3-12-20.6-14.6-33-13.9a91.757,91.757,0,0,0-23,4.5s2,1.6,5.4,3.8a90.4,90.4,0,0,0,13.5,7.3c10.9,4.6,24.8,7.5,37.1-1.7"/></clipPath><clipPath id="v"><rect width="921" height="896" transform="translate(-220 -731)"/></clipPath><clipPath id="w"><path d="M174.4,234.5c-2.3-11.7-.3-25.3,4.5-37.8,4.9-12.4,12.8-23.8,23.1-30.2a87.658,87.658,0,0,1-.1,18.2c-1.1,10.1-4.4,22.1-12.4,29.9s-11.8,12.7-13.6,15.7c-1.7,3.1-1.5,4.2-1.5,4.2"/></clipPath><clipPath id="x"><rect width="921" height="896" transform="translate(-274 -678)"/></clipPath><clipPath id="y"><path d="M183.2,249.5c-3.7-7.5-1.5-18.1,4.8-26.9s16.9-15.9,30.4-15a48.927,48.927,0,0,1-4.9,12c-3.6,6.3-9.4,13-17.8,15.3-8.2,2.3-11.3,6-12.3,9.1a8.709,8.709,0,0,0-.2,5.5"/></clipPath><clipPath id="z"><rect width="921" height="896" transform="translate(-282 -719)"/></clipPath><clipPath id="aa"><path d="M172.2,253.3a6.151,6.151,0,0,1,1.3.1c2.5.4,5.1-.1,7.6-.2v-.1c2.5-3-3-1.3,5.5-11.7,4.3-5.2,1-23.1-13.9-38.4,6.1,12.1,3.5,28.7,2.1,24.2-1.4-4.7-1.3-24.6-9-30.3a90.844,90.844,0,0,0-28.2-14.2c11.4,13.8,14.1,26.4,10.2,26.5-1.7,0-9.1-26.7-21.4-29-10.2-1.9-21.9-2.2-35.1-1,1.1,10.9,1.8,21.1,5.9,29,9.7,18.7,39.4,16.8,41.6,21.9,1.7,4-25.6.5-37.3-9.6,5.4,12.7,15.4,24.3,22.7,29.4s25.5-4,30.3-4c4.6-.1,3.2,4.3-9.3,7.2.8,0-.8.1,0,0,1.4-.3,1.5.2,2.8-.1a5.755,5.755,0,0,1,3.7.1c2.3-.2,4.7,0,7,0a18.188,18.188,0,0,1,3.3,0c3.6-.5,6.7-.1,10.2.2"/></clipPath><clipPath id="ab"><rect width="921" height="896" transform="translate(-192 -690)"/></clipPath><clipPath id="ac"><path d="M415,214.6c4.4-8.2,5.1-18.9,6.4-30.3q-21-1.95-37.2.9c-13,2.3-21,30.2-22.8,30.2-4.2-.1-1.2-13.2,10.9-27.6a95.931,95.931,0,0,0-29.9,14.7c-8.2,5.9-8.1,26.7-9.7,31.6-1.5,4.7-4.1-12.7,2.4-25.3-15.9,16-19.4,34.6-14.9,40.1,8.9,10.9,16-1.1,18.7,2.1.7.9,1,1.2.1,2.4,1.3-.3,1.7.1,2.9,0,1.4,0,3.2-.6,4.4-.2a12.312,12.312,0,0,0,2-.2h1.4c5.7-.3,10.6.2,16.3.2a28.1,28.1,0,0,1,2.9.1,169.024,169.024,0,0,1,23.6-.3,80.4,80.4,0,0,0,18-25.5c-12.5,10.4-41.4,13.9-39.6,9.8,2.3-5.4,33.7-3.2,44.1-22.7"/></clipPath><clipPath id="ad"><rect width="921" height="896" transform="translate(-419 -695)"/></clipPath><clipPath id="ae"><path d="M232.3,252.9a62.283,62.283,0,0,0,2.1-14.3,39.4,39.4,0,0,1-10,15c2.6-.2,5.3-.6,7.9-.7"/></clipPath><clipPath id="af"><rect width="921" height="896" transform="translate(-325 -750)"/></clipPath><clipPath id="ag"><path d="M184.6,252.5h3.8q-2.55-1.5-6-3.9c.4,1.4.8,2.7,1.2,4a3.4,3.4,0,0,1,1-.1"/></clipPath><clipPath id="ah"><rect width="921" height="896" transform="translate(-283 -760)"/></clipPath><clipPath id="ai"><path d="M198.9,252.6a4.69,4.69,0,0,1,2.7.5,54.767,54.767,0,0,1,7-.4c1.1-.1,2.1-.1,3.2-.1,1.7-.2,3.5-.5,5.3-.6,2.1-.2,4.2-.1,6.3-.1-9.2-26.2-35.4-89-83.2-114.4,0,0-11.3,43.5,49.2,116,2.5-.2,4.9-.4,7.4-.7a14.92,14.92,0,0,0,2.1-.2"/></clipPath><clipPath id="aj"><rect width="921" height="896" transform="translate(-240 -649)"/></clipPath><clipPath id="ak"><path d="M280.6,248.4c3.5.5,7.3,1,10.8,1.6a27.128,27.128,0,0,1,3.8.6c1.3-.1,2.2.7,3.3.8.2,0,.4.1.6.1,66.7-71.8,56.8-117,56.8-117-68,36-72.4,76.1-85.5,112.2,2.5.5,5,1,7.5,1.4.9.1,2.1-.1,2.7.3"/></clipPath><clipPath id="al"><rect width="921" height="896" transform="translate(-371 -646)"/></clipPath><clipPath id="am"><path d="M82.4,176.6a6.519,6.519,0,1,1-7-6,6.5,6.5,0,0,1,7,6"/></clipPath><clipPath id="an"><rect width="921" height="896" transform="translate(-170 -682)"/></clipPath><clipPath id="ao"><path d="M80.4,167.2a4.011,4.011,0,1,1-4.3-3.7,4.091,4.091,0,0,1,4.3,3.7"/></clipPath><clipPath id="ap"><rect width="921" height="896" transform="translate(-173 -675)"/></clipPath><clipPath id="aq"><path d="M55.6,215.8a4.993,4.993,0,1,1-6.9-1.5,5.008,5.008,0,0,1,6.9,1.5"/></clipPath><clipPath id="ar"><rect width="921" height="896" transform="translate(-147 -725)"/></clipPath><clipPath id="as"><path d="M51.9,209.9a2.968,2.968,0,1,1-4.1-.9,2.918,2.918,0,0,1,4.1.9"/></clipPath><clipPath id="at"><rect width="921" height="896" transform="translate(-147 -720)"/></clipPath><clipPath id="au"><path d="M428.4,176.6a6.519,6.519,0,1,0,7-6,6.5,6.5,0,0,0-7,6"/></clipPath><clipPath id="av"><rect width="921" height="896" transform="translate(-529 -682)"/></clipPath><clipPath id="aw"><path d="M430.4,167.2a4.011,4.011,0,1,0,4.3-3.7,4.091,4.091,0,0,0-4.3,3.7"/></clipPath><clipPath id="ax"><rect width="921" height="896" transform="translate(-531 -675)"/></clipPath><clipPath id="ay"><path d="M455.2,215.8a4.993,4.993,0,1,0,6.9-1.5,5.008,5.008,0,0,0-6.9,1.5"/></clipPath><clipPath id="az"><rect width="921" height="896" transform="translate(-555 -725)"/></clipPath><clipPath id="ba"><path d="M458.9,209.9a2.968,2.968,0,1,0,4.1-.9,2.918,2.918,0,0,0-4.1.9"/></clipPath><clipPath id="bb"><rect width="921" height="896" transform="translate(-559 -720)"/></clipPath><clipPath id="bc"><path d="M231.9,208.5l-12.5,20.8,24.1,29.2h24.3l22.6-29.6-14-20.4Z"/></clipPath><clipPath id="bd"><rect width="921" height="896" transform="translate(-320 -720)"/></clipPath><clipPath id="be"><path d="M219,229.5s-54.7,4.2-68.4,18.6-5.8,23.9,6.1,30c16.8,8.6,66.2,6.7,97.6-3.7l5.1-30Z"/></clipPath><clipPath id="bf"><rect width="921" height="896" transform="translate(-244 -741)"/></clipPath><clipPath id="bg"><path d="M290.1,228.5s57.3,5,71.1,19.4c13.7,14.4,5.8,23.9-6.1,30-16.8,8.6-77.3,7.2-108.6-3.3l5.8-30.4Z"/></clipPath><clipPath id="bh"><rect width="921" height="896" transform="translate(-347 -740)"/></clipPath><clipPath id="bi"><path d="M303.5,253.5,291.3,252l-1.9-5,4.8-2.2s-.7-7.1,5.2-8.2c5.8-1.2,12.8,3.7,19.6.6,6.3-2.9,13.9-5.6,21.1-1.6a2.583,2.583,0,0,1,1.2,3.1v.1a2.587,2.587,0,0,1-2.7,1.8,17.949,17.949,0,0,0-11.5,2.6c-4.5,2.8-15.4,7.2-23.6,10.3"/></clipPath><clipPath id="bj"><rect width="921" height="896" transform="translate(-390 -745)"/></clipPath><clipPath id="bk"><path d="M212.6,258.5l5.8-9.3-5.8-3.3s1.2-7-4.5-8.7c-5.7-1.6-13,2.7-19.5-1-6-3.4-13.4-6.7-20.7-3.3a2.628,2.628,0,0,0-1.4,3v.1a2.461,2.461,0,0,0,2.5,2,18.033,18.033,0,0,1,11.2,3.5c7.2,5.6,32.4,17,32.4,17"/></clipPath><clipPath id="bl"><rect width="921" height="896" transform="translate(-267 -743)"/></clipPath><clipPath id="bm"><path d="M290.7,117.9C281.6,103.4,280,79.5,280,79.5l-22.4-9.1v-.8l-1.4.4-1.4-.4v.8l-22.3,8.9s-2.4,24.9-11.6,39.4c-9,14.4-2.5,32.3,35.2,29.7,37.8,2.5,43.6-16.2,34.6-30.5"/></clipPath><clipPath id="bn"><rect width="921" height="896" transform="translate(-318 -581)"/></clipPath><clipPath id="bo"><path d="M268.4,129.6l21.6,6.9c4,1.5,5.1,6,4,10.1l-17.2,61.9H232l-15.5-63.2c-.6-2.9.8-7.1,3.5-8.2l23.4-8.6Z"/></clipPath><clipPath id="bp"><rect width="921" height="896" transform="translate(-317 -640)"/></clipPath><clipPath id="bq"><path d="M285,161.6l22.9,50.1a10.594,10.594,0,0,0,12.2,6.6,10.3,10.3,0,0,0,7.7-13.5c-4.5-12.5-18-37.8-22.7-50.3a10.755,10.755,0,0,0-15.3-5.5,10.362,10.362,0,0,0-4.8,12.6"/></clipPath><clipPath id="br"><rect width="921" height="896" transform="translate(-385 -659)"/></clipPath><clipPath id="bs"><path d="M290.5,136.5s7.5.7,16.9,24.9l-21.9,11.1-7.1-20.8Z"/></clipPath><clipPath id="bt"><rect width="921" height="896" transform="translate(-379 -648)"/></clipPath><clipPath id="bu"><path d="M312.4,195.6c-.6-.2-.3,1.1-54.7-22.1l-2.3,3.1c-.1,3.3.6,6.4,2.6,7.7l53.7,34.1Z"/></clipPath><clipPath id="bv"><rect width="921" height="896" transform="translate(-356 -685)"/></clipPath><clipPath id="bw"><path d="M255.7,176.9l-.3-26.3a1.135,1.135,0,0,1,1.2-1.1,1.088,1.088,0,0,1,1.1.9l7.7,31.1Z"/></clipPath><clipPath id="bx"><rect width="921" height="896" transform="translate(-356 -661)"/></clipPath><clipPath id="by"><path d="M225.8,161.6l-22.9,50.1a10.594,10.594,0,0,1-12.2,6.6,10.3,10.3,0,0,1-7.7-13.5c4.5-12.5,18-37.8,22.7-50.3A10.755,10.755,0,0,1,221,149a10.362,10.362,0,0,1,4.8,12.6"/></clipPath><clipPath id="bz"><rect width="921" height="896" transform="translate(-283 -659)"/></clipPath><clipPath id="ca"><path d="M219.3,136.5s-7.5.7-16.9,24.9l21.9,11.1,7.1-20.8Z"/></clipPath><clipPath id="cb"><rect width="921" height="896" transform="translate(-303 -648)"/></clipPath><clipPath id="cc"><path d="M198.4,195.6c.6-.2.3,1.1,54.6-22.1l2.3,3.1c.2,3.7-.9,6.5-2.9,7.9l-53.5,34Z"/></clipPath><clipPath id="cd"><rect width="921" height="896" transform="translate(-299 -685)"/></clipPath><clipPath id="ce"><path d="M255.1,176.9l.3-26.3a1.135,1.135,0,0,0-1.2-1.1,1.088,1.088,0,0,0-1.1.9l-7.7,31.1Z"/></clipPath><clipPath id="cf"><rect width="921" height="896" transform="translate(-346 -661)"/></clipPath><clipPath id="cg"><path d="M247,127.2l-16.6,6.4a54.7,54.7,0,0,0,24.1,5.9,61.4,61.4,0,0,0,25.9-5.6l-17.3-7.4Z"/></clipPath><clipPath id="ch"><rect width="921" height="896" transform="translate(-331 -638)"/></clipPath><clipPath id="ci"><path d="M263.3,110a45.087,45.087,0,0,0-6.2.8c-3.6.7-6.6-1.2-7.3,1.2l-2.9-2.5-1.5,24.4a20.173,20.173,0,0,0,20-.3Z"/></clipPath><clipPath id="cj"><rect width="921" height="896" transform="translate(-346 -621)"/></clipPath><clipPath id="ck"><path d="M244.4,106.5s4.5,11.2,20,12l-1.3-15Z"/></clipPath><clipPath id="cl"><rect width="921" height="896" transform="translate(-345 -615)"/></clipPath><clipPath id="cm"><path d="M281.4,79.6c0,13.7-10.7,24.9-24,24.9s-24-11.1-24-24.9c0-13.7,10.7-23.1,24-23.1s24,9.4,24,23.1"/></clipPath><clipPath id="cn"><rect width="921" height="896" transform="translate(-334 -568)"/></clipPath><clipPath id="co"><path d="M274.4,80.2a85.256,85.256,0,0,1-2.2,19.2c-1.1,4.7-4.1,7.9-8.4,10.5l-.8.5a14.9,14.9,0,0,1-15,.2c-4.6-2.7-7.9-6.2-8.9-11.2a127.129,127.129,0,0,1-2-19.1s-1.7-19.6,18.4-19.2c20.1.2,18.9,19.1,18.9,19.1"/></clipPath><clipPath id="cp"><rect width="904.1" height="888.6" transform="translate(-330.8 -567.3)"/></clipPath><clipPath id="cq"><path d="M239.1,99.9c-3.5,3.2-12.2-6.2-9-9.9,3-3.5,7.2.5,7.2.5L238,94l1.1,4.7.3,1.1Z"/></clipPath><clipPath id="cr"><rect width="921" height="896" transform="translate(-330 -600)"/></clipPath><clipPath id="cs"><path d="M272.7,100.1c3.6,2.8,12.4-7.5,8.9-10.4-3.5-3-7.3.9-7.3.9l-.6,3.5-1,4.8-.2,1.1Z"/></clipPath><clipPath id="ct"><rect width="921" height="896" transform="translate(-373 -600)"/></clipPath><clipPath id="cu"><path d="M233.4,87.2l4,5.3-.8-13Z"/></clipPath><clipPath id="cv"><rect width="921" height="896" transform="translate(-334 -591)"/></clipPath><clipPath id="cw"><path d="M277.4,87.3l-3,5.2.7-13Z"/></clipPath><clipPath id="cx"><rect width="921" height="896" transform="translate(-375 -591)"/></clipPath><clipPath id="cy"><path d="M249.4,99.5h11s-1.2,2-5.5,2c-4.6,0-5.5-2-5.5-2"/></clipPath><clipPath id="cz"><rect width="921" height="896" transform="translate(-350 -611)"/></clipPath><clipPath id="da"><path d="M249.4,99.5l2.5-.9a2.483,2.483,0,0,1,1.7,0l1.4.4,1.2-.3a4.845,4.845,0,0,1,1.7,0l2.5.8Z"/></clipPath><clipPath id="db"><rect width="921" height="896" transform="translate(-350 -610)"/></clipPath><clipPath id="dc"><path d="M259.4,81.8s6,.3,10,2.8c0,0,0-2.5-3.8-3.7a6.618,6.618,0,0,0-6.2.9"/></clipPath><clipPath id="dd"><rect width="921" height="896" transform="translate(-360 -592)"/></clipPath><clipPath id="de"><path d="M251.4,81.8s-6,.3-10,2.8c0,0,0-2.5,3.8-3.7a6.618,6.618,0,0,1,6.2.9"/></clipPath><clipPath id="df"><rect width="921" height="896" transform="translate(-342 -592)"/></clipPath><clipPath id="dg"><path d="M238.4,65.2s7.3,14.6,38.7,15.3c0,0,3.4-13.8-12.7-19.3-16.1-5.4-26,4-26,4"/></clipPath><clipPath id="dh"><rect width="921" height="896" transform="translate(-339 -571)"/></clipPath><clipPath id="di"><path d="M234.4,82.5s9.7-2.7,11-18c0,0-9.9,1.5-11,18"/></clipPath><clipPath id="dj"><rect width="921" height="896" transform="translate(-335 -576)"/></clipPath></defs><g transform="translate(-33.4 -35.5)"><g clip-path="url(#a)"><g transform="translate(68.4 30.5)" clip-path="url(#b)"><rect width="376" height="228" fill="#fae1dc"/></g></g><g clip-path="url(#c)"><g transform="translate(296.4 105.5)" clip-path="url(#d)"><rect width="62" height="98" fill="#feece3"/></g></g><g clip-path="url(#e)"><g transform="translate(269.4 133.5)" clip-path="url(#f)"><rect width="33" height="79" fill="#feece3"/></g></g><g clip-path="url(#g)"><g transform="translate(288.4 180.5)" clip-path="url(#h)"><rect width="89" height="41" fill="#feece3"/></g></g><g clip-path="url(#i)"><g transform="translate(249.4 162.5)" clip-path="url(#j)"><rect width="37" height="77" fill="#feece3"/></g></g><g clip-path="url(#k)"><g transform="translate(270.4 214.5)" clip-path="url(#l)"><rect width="98" height="35" fill="#feece3"/></g></g><g clip-path="url(#m)"><g transform="translate(219.4 192.5)" clip-path="url(#n)"><rect width="51" height="60" fill="#feece3"/></g></g><g clip-path="url(#o)"><g transform="translate(105.4 126.5)" clip-path="url(#p)"><rect width="58" height="81" fill="#feece3"/></g></g><g clip-path="url(#q)"><g transform="translate(101.4 192.5)" clip-path="url(#r)"><rect width="66" height="30" fill="#feece3"/></g></g><g clip-path="url(#s)"><g transform="translate(156.4 136.5)" clip-path="url(#t)"><rect width="28" height="80" fill="#feece3"/></g></g><g clip-path="url(#u)"><g transform="translate(114.4 214.5)" clip-path="url(#v)"><rect width="66" height="30" fill="#feece3"/></g></g><g clip-path="url(#w)"><g transform="translate(168.4 161.5)" clip-path="url(#x)"><rect width="39" height="78" fill="#feece3"/></g></g><g clip-path="url(#y)"><g transform="translate(176.4 202.5)" clip-path="url(#z)"><rect width="47" height="52" fill="#feece3"/></g></g><g clip-path="url(#aa)"><g transform="translate(86.4 173.5)" clip-path="url(#ab)"><path d="M0,0H107V85H0Z" fill="#31c6b3"/></g></g><path d="M104.4,193.5s29.4,17,70,60" fill="none" stroke="#fef4ef" stroke-miterlimit="10" stroke-width="1.046"/><line x2="6" y2="17" transform="translate(128.4 198.5)" fill="none" stroke="#fef4ef" stroke-miterlimit="10" stroke-width="1.046"/><g clip-path="url(#ac)"><g transform="translate(313.4 178.5)" clip-path="url(#ad)"><path d="M0,0H113V80H0Z" fill="#31c6b3"/></g></g><path d="M407.4,198.5s-22.9,9.8-66,54" fill="none" stroke="#fef4ef" stroke-miterlimit="10" stroke-width="1.046"/><line x1="6" y2="16" transform="translate(374.4 205.5)" fill="none" stroke="#fef4ef" stroke-miterlimit="10" stroke-width="1.046"/><g clip-path="url(#ae)"><g transform="translate(219.4 233.5)" clip-path="url(#af)"><rect width="20" height="25" fill="#72d1dc"/></g></g><g clip-path="url(#ag)"><g transform="translate(177.4 243.5)" clip-path="url(#ah)"><rect width="16" height="14" fill="#72d1dc"/></g></g><g clip-path="url(#ai)"><g transform="translate(134.4 132.5)" clip-path="url(#aj)"><path d="M0,0H94V126H0Z" fill="#009788"/></g></g><line x2="56" y2="95" transform="translate(150.4 156.5)" fill="none" stroke="#fef4ef" stroke-miterlimit="10" stroke-width="1.046"/><line y1="21" x2="2" transform="translate(176.4 180.5)" fill="none" stroke="#fef4ef" stroke-miterlimit="10" stroke-width="1.046"/><line x2="13" y2="4" transform="translate(181.4 227.5)" fill="none" stroke="#fef4ef" stroke-miterlimit="10" stroke-width="1.046"/><g clip-path="url(#ak)"><g transform="translate(265.4 129.5)" clip-path="url(#al)"><path d="M0,0H96V127H0Z" fill="#009788"/></g></g><line x1="63" y2="95" transform="translate(284.4 153.5)" fill="none" stroke="#fef4ef" stroke-miterlimit="10" stroke-width="1.046"/><line x1="1" y1="21" transform="translate(315.4 177.5)" fill="none" stroke="#fef4ef" stroke-miterlimit="10" stroke-width="1.046"/><line x1="13" y2="4" transform="translate(297.4 223.5)" fill="none" stroke="#fef4ef" stroke-miterlimit="10" stroke-width="1.046"/><path d="M105.4,253.5s-34.9-24.6-30.6-74" fill="none" stroke="#eec3b0" stroke-miterlimit="10" stroke-width="2.062"/><g clip-path="url(#am)"><g transform="translate(64.4 165.5)" clip-path="url(#an)"><rect width="23" height="23" fill="#f67e6c"/></g></g><g clip-path="url(#ao)"><g transform="translate(67.4 158.5)" clip-path="url(#ap)"><rect width="18" height="18" fill="#f67e6c"/></g></g><path d="M105.4,251.4s-36.6,3.8-52-31.9" fill="none" stroke="#eec3b0" stroke-miterlimit="10" stroke-width="2.062"/><g clip-path="url(#aq)"><g transform="translate(41.4 208.5)" clip-path="url(#ar)"><rect width="20" height="20" fill="#f67e6c"/></g></g><g clip-path="url(#as)"><g transform="translate(41.4 203.5)" clip-path="url(#at)"><rect width="16" height="16" fill="#f67e6c"/></g></g><path d="M405.4,253.5s34.9-24.6,30.6-74" fill="none" stroke="#eec3b0" stroke-miterlimit="10" stroke-width="2.062"/><g clip-path="url(#au)"><g transform="translate(423.4 165.5)" clip-path="url(#av)"><rect width="23" height="23" fill="#f67e6c"/></g></g><g clip-path="url(#aw)"><g transform="translate(425.4 158.5)" clip-path="url(#ax)"><rect width="18" height="18" fill="#f67e6c"/></g></g><path d="M406.4,251.4s36.6,3.8,52-31.9" fill="none" stroke="#eec3b0" stroke-miterlimit="10" stroke-width="2.062"/><g clip-path="url(#ay)"><g transform="translate(449.4 208.5)" clip-path="url(#az)"><rect width="20" height="20" fill="#f67e6c"/></g></g><g clip-path="url(#ba)"><g transform="translate(453.4 203.5)" clip-path="url(#bb)"><rect width="16" height="16" fill="#f67e6c"/></g></g><line x2="446" transform="translate(33.4 253)" fill="none" stroke="#eec3b0" stroke-miterlimit="10" stroke-width="1.906"/><path d="M136.1,265.5l-64.7,29h368l-62.9-29Z" fill="none" stroke="#eec3b0" stroke-miterlimit="10" stroke-width="1.906"/><g clip-path="url(#bc)"><g transform="translate(214.4 203.5)" clip-path="url(#bd)"><rect width="81" height="60" fill="#bf7b85"/></g></g><g clip-path="url(#be)"><g transform="translate(138.4 224.5)" clip-path="url(#bf)"><rect width="126" height="64" fill="#bf7b85"/></g></g><g clip-path="url(#bg)"><g transform="translate(241.4 223.5)" clip-path="url(#bh)"><rect width="132" height="65" fill="#bf7b85"/></g></g><g clip-path="url(#bi)"><g transform="translate(284.4 228.5)" clip-path="url(#bj)"><rect width="62" height="30" fill="#fcb69b"/></g></g><line y1="2" x2="25" transform="translate(262.4 247.5)" fill="none" stroke="#4d2839" stroke-linecap="round" stroke-miterlimit="10" stroke-width="1.295"/><path d="M249.4,275.5c-19.1-4.5-39-15.9-39-15.9l1.2-2.1" fill="none" stroke="#4d2839" stroke-linecap="round" stroke-miterlimit="10" stroke-width="1.295"/><path d="M219.4,249.7s89.1-2.5,112,10.8" fill="none" stroke="#4d2839" stroke-linecap="round" stroke-miterlimit="10" stroke-width="1.295"/><path d="M175.4,255.5s16-7,27-2.4" fill="none" stroke="#4d2839" stroke-linecap="round" stroke-miterlimit="10" stroke-width="1.295"/><g clip-path="url(#bk)"><g transform="translate(161.4 226.5)" clip-path="url(#bl)"><rect width="62" height="37" fill="#fcb69b"/></g></g><line x2="13" y2="10" transform="translate(233.4 239.5)" fill="none" stroke="#4d2839" stroke-linecap="round" stroke-miterlimit="10" stroke-width="1.295"/><g clip-path="url(#bm)"><g transform="translate(212.4 64.5)" clip-path="url(#bn)"><rect width="87" height="89" fill="#464461"/></g></g><g clip-path="url(#bo)"><g transform="translate(211.4 123.5)" clip-path="url(#bp)"><rect width="88" height="90" fill="#f7c87f"/></g></g><g clip-path="url(#bq)"><g transform="translate(279.4 142.5)" clip-path="url(#br)"><rect width="54" height="81" fill="#fcb69b"/></g></g><g clip-path="url(#bs)"><g transform="translate(273.4 131.5)" clip-path="url(#bt)"><rect width="39" height="46" fill="#f7c87f"/></g></g><line y1="13" x2="3" transform="translate(287.4 158.5)" fill="none" stroke="#4d2839" stroke-linecap="round" stroke-miterlimit="10" stroke-width="1.295"/><g clip-path="url(#bu)"><g transform="translate(250.4 168.5)" clip-path="url(#bv)"><rect width="67" height="55" fill="#fcb69b"/></g></g><g clip-path="url(#bw)"><g transform="translate(250.4 144.5)" clip-path="url(#bx)"><rect width="20" height="42" fill="#fcb69b"/></g></g><g clip-path="url(#by)"><g transform="translate(177.4 142.5)" clip-path="url(#bz)"><rect width="54" height="81" fill="#fcb69b"/></g></g><g clip-path="url(#ca)"><g transform="translate(197.4 131.5)" clip-path="url(#cb)"><rect width="39" height="46" fill="#f7c87f"/></g></g><line x1="3" y1="13" transform="translate(219.4 158.5)" fill="none" stroke="#4d2839" stroke-linecap="round" stroke-miterlimit="10" stroke-width="1.295"/><g clip-path="url(#cc)"><g transform="translate(193.4 168.5)" clip-path="url(#cd)"><rect width="67" height="55" fill="#fcb69b"/></g></g><g clip-path="url(#ce)"><g transform="translate(240.4 144.5)" clip-path="url(#cf)"><rect width="20" height="42" fill="#fcb69b"/></g></g><g clip-path="url(#cg)"><g transform="translate(225.4 121.5)" clip-path="url(#ch)"><rect width="60" height="23" fill="#fcb69b"/></g></g><g clip-path="url(#ci)"><g transform="translate(240.4 104.5)" clip-path="url(#cj)"><rect width="30" height="37" fill="#fcb69b"/></g></g><g clip-path="url(#ck)"><g transform="translate(239.4 98.5)" clip-path="url(#cl)"><rect width="30" height="25" fill="#4d293a"/></g></g><g clip-path="url(#cm)"><g transform="translate(228.4 51.5)" clip-path="url(#cn)"><rect width="58" height="58" fill="#464461"/></g></g><g clip-path="url(#co)"><g transform="translate(232.2 56)" clip-path="url(#cp)"><rect width="47.1" height="61.5" fill="#fcb69b"/></g></g><g clip-path="url(#cq)"><g transform="translate(224.4 83.5)" clip-path="url(#cr)"><rect width="20" height="22" fill="#fcb69b"/></g></g><g clip-path="url(#cs)"><g transform="translate(267.4 83.5)" clip-path="url(#ct)"><rect width="20" height="22" fill="#fcb69b"/></g></g><g clip-path="url(#cu)"><g transform="translate(228.4 74.5)" clip-path="url(#cv)"><rect width="14" height="23" fill="#464461"/></g></g><g clip-path="url(#cw)"><g transform="translate(269.4 74.5)" clip-path="url(#cx)"><rect width="13" height="23" fill="#464461"/></g></g><path d="M256,87.6l.4,6.3-1,.6" fill="none" stroke="#4d2839" stroke-linecap="round" stroke-linejoin="round" stroke-miterlimit="10" stroke-width="1.554"/><g clip-path="url(#cy)"><g transform="translate(244.4 94.5)" clip-path="url(#cz)"><rect width="21" height="12" fill="#f0626d"/></g></g><g clip-path="url(#da)"><g transform="translate(244.4 93.5)" clip-path="url(#db)"><rect width="21" height="11" fill="#f0626d"/></g></g><path d="M249.4,86.5a5.092,5.092,0,0,1-6,0" fill="none" stroke="#4d2839" stroke-linecap="round" stroke-miterlimit="10" stroke-width="1.554"/><path d="M266.4,86.5a5.092,5.092,0,0,1-6,0" fill="none" stroke="#4d2839" stroke-linecap="round" stroke-miterlimit="10" stroke-width="1.554"/><g clip-path="url(#dc)"><g transform="translate(254.4 75.5)" clip-path="url(#dd)"><rect width="20" height="14" fill="#4d293a"/></g></g><g clip-path="url(#de)"><g transform="translate(236.4 75.5)" clip-path="url(#df)"><rect width="20" height="14" fill="#4d293a"/></g></g><g clip-path="url(#dg)"><g transform="translate(233.4 54.5)" clip-path="url(#dh)"><rect width="49" height="31" fill="#464461"/></g></g><g clip-path="url(#di)"><g transform="translate(229.4 59.5)" clip-path="url(#dj)"><rect width="21" height="28" fill="#464461"/></g></g></g></svg>